<svg width="316" height="42" viewBox="0 0 316 42" fill="none" xmlns="http://www.w3.org/2000/svg">
<path d="M38.69 20.195H32.84V39.815H27.485V0.079999H32.84V15.695H38.69V20.195ZM19.295 6.83H5.885V2.285H19.295V6.83ZM0.17 10.61H24.245V15.02H18.62V15.335C21.02 16.745 22.22 19.175 22.22 22.625C22.22 24.485 21.8 26.15 20.96 27.62C20.12 29.06 18.95 30.185 17.45 30.995C15.98 31.775 14.315 32.165 12.455 32.165C10.565 32.165 8.87 31.775 7.37 30.995C5.9 30.185 4.745 29.06 3.905 27.62C3.065 26.18 2.645 24.515 2.645 22.625C2.645 19.175 3.845 16.745 6.245 15.335V15.02H0.17V10.61ZM17.045 20.555C17.045 18.995 16.625 17.795 15.785 16.955C14.975 16.085 13.865 15.65 12.455 15.65C11.045 15.65 9.905 16.085 9.035 16.955C8.195 17.795 7.775 18.995 7.775 20.555V22.76C7.775 24.29 8.195 25.49 9.035 26.36C9.905 27.23 11.045 27.665 12.455 27.665C13.865 27.665 14.975 27.245 15.785 26.405C16.625 25.535 17.045 24.32 17.045 22.76V20.555ZM69.4971 0.079999H74.8971V39.77H69.4971V0.079999ZM41.5521 16.19C41.5521 11.69 42.5421 8.3 44.5221 6.02C46.5321 3.71 49.2021 2.555 52.5321 2.555C55.8321 2.555 58.4721 3.71 60.4521 6.02C62.4321 8.3 63.4221 11.69 63.4221 16.19C63.4221 20.66 62.4321 24.05 60.4521 26.36C58.4721 28.67 55.8321 29.825 52.5321 29.825C49.2321 29.825 46.5771 28.67 44.5671 26.36C42.5571 24.05 41.5521 20.66 41.5521 16.19ZM57.7071 18.71V13.67C57.7071 11.51 57.2421 9.875 56.3121 8.765C55.3821 7.625 54.1221 7.055 52.5321 7.055C50.9421 7.055 49.6671 7.625 48.7071 8.765C47.7471 9.905 47.2671 11.54 47.2671 13.67V18.71C47.2671 20.84 47.7471 22.475 48.7071 23.615C49.6671 24.755 50.9421 25.325 52.5321 25.325C54.1221 25.325 55.3821 24.77 56.3121 23.66C57.2421 22.52 57.7071 20.87 57.7071 18.71ZM115.064 0.079999V39.77H109.754V17.9H103.049C102.779 21.83 101.669 24.8 99.7191 26.81C97.7991 28.82 95.3241 29.825 92.2941 29.825C88.9941 29.825 86.3541 28.67 84.3741 26.36C82.4241 24.05 81.4491 20.66 81.4491 16.19C81.4491 11.69 82.4241 8.3 84.3741 6.02C86.3541 3.71 88.9941 2.555 92.2941 2.555C95.1741 2.555 97.5591 3.47 99.4491 5.3C101.369 7.13 102.539 9.83 102.959 13.4H109.754V0.079999H115.064ZM97.4691 13.625C97.4691 11.495 97.0041 9.875 96.0741 8.765C95.1441 7.625 93.8841 7.055 92.2941 7.055C90.7041 7.055 89.4441 7.625 88.5141 8.765C87.5841 9.875 87.1191 11.495 87.1191 13.625V18.755C87.1191 20.885 87.5841 22.52 88.5141 23.66C89.4441 24.77 90.7041 25.325 92.2941 25.325C93.8841 25.325 95.1441 24.77 96.0741 23.66C97.0041 22.52 97.4691 20.885 97.4691 18.755V13.625ZM155.141 0.079999V39.77H149.741V0.079999H155.141ZM145.781 24.74L146.411 29.06C143.831 29.51 141.116 29.855 138.266 30.095C135.416 30.305 131.936 30.41 127.826 30.41H123.326V13.895H136.556V7.46H123.236V2.96H141.911V18.305H128.681V26C135.161 25.97 140.861 25.55 145.781 24.74ZM176.903 5.66H165.518V1.43H193.598V5.66H182.258C182.078 7.55 181.388 9.17 180.188 10.52L180.458 10.61L181.898 9.62C182.438 9.2 183.023 8.99 183.653 8.99C184.133 8.99 184.643 9.125 185.183 9.395L195.443 13.94L192.653 17.855L180.998 12.275C180.518 12.035 180.068 11.915 179.648 11.915C179.228 11.915 178.808 12.035 178.388 12.275L178.118 12.41C175.718 14.24 171.803 16.07 166.373 17.9L163.673 14.075C168.023 12.665 171.218 11.315 173.258 10.025C175.298 8.705 176.513 7.25 176.903 5.66ZM198.098 19.79V24.2H161.018V19.79H198.098ZM166.283 26.945H192.788V41.255H169.703C167.423 41.255 166.283 40.115 166.283 37.835V26.945ZM171.548 37.025H187.523V31.13H171.548V37.025ZM210.021 30.575H205.656V35H203.676V24.53H205.656V28.82H210.021V24.53H212.001V35H210.021V30.575ZM215.298 26.03C214.898 26.03 214.608 25.94 214.428 25.76C214.258 25.58 214.173 25.35 214.173 25.07V24.77C214.173 24.49 214.258 24.26 214.428 24.08C214.608 23.9 214.898 23.81 215.298 23.81C215.688 23.81 215.973 23.9 216.153 24.08C216.333 24.26 216.423 24.49 216.423 24.77V25.07C216.423 25.35 216.333 25.58 216.153 25.76C215.973 25.94 215.688 26.03 215.298 26.03ZM214.338 27.17H216.258V35H214.338V27.17ZM218.483 35V27.17H220.403V28.79H220.478C220.528 28.58 220.603 28.38 220.703 28.19C220.813 27.99 220.953 27.815 221.123 27.665C221.293 27.515 221.493 27.395 221.723 27.305C221.963 27.215 222.238 27.17 222.548 27.17H222.968V28.985H222.368C221.718 28.985 221.228 29.08 220.898 29.27C220.568 29.46 220.403 29.77 220.403 30.2V35H218.483ZM227.463 35.18C226.883 35.18 226.363 35.085 225.903 34.895C225.453 34.695 225.068 34.42 224.748 34.07C224.438 33.71 224.198 33.28 224.028 32.78C223.858 32.27 223.773 31.7 223.773 31.07C223.773 30.45 223.853 29.89 224.013 29.39C224.183 28.89 224.423 28.465 224.733 28.115C225.043 27.755 225.423 27.48 225.873 27.29C226.323 27.09 226.833 26.99 227.403 26.99C228.013 26.99 228.543 27.095 228.993 27.305C229.443 27.515 229.813 27.8 230.103 28.16C230.393 28.52 230.608 28.94 230.748 29.42C230.898 29.89 230.973 30.395 230.973 30.935V31.565H225.768V31.76C225.768 32.33 225.928 32.79 226.248 33.14C226.568 33.48 227.043 33.65 227.673 33.65C228.153 33.65 228.543 33.55 228.843 33.35C229.153 33.15 229.428 32.895 229.668 32.585L230.703 33.74C230.383 34.19 229.943 34.545 229.383 34.805C228.833 35.055 228.193 35.18 227.463 35.18ZM227.433 28.43C226.923 28.43 226.518 28.6 226.218 28.94C225.918 29.28 225.768 29.72 225.768 30.26V30.38H228.978V30.245C228.978 29.705 228.843 29.27 228.573 28.94C228.313 28.6 227.933 28.43 227.433 28.43ZM238.758 34.055V31.19H236.103V29.645H238.758V26.765H240.438V29.645H243.093V31.19H240.438V34.055H238.758ZM255.347 35L254.507 32.33H250.787L249.962 35H247.952L251.462 24.53H253.922L257.402 35H255.347ZM252.677 26.33H252.602L251.267 30.635H254.027L252.677 26.33ZM260.745 35C260.085 35 259.6 34.835 259.29 34.505C258.98 34.175 258.825 33.71 258.825 33.11V23.9H260.745V33.47H261.78V35H260.745ZM270.299 35.66C270.299 36.07 270.224 36.43 270.074 36.74C269.934 37.06 269.699 37.325 269.369 37.535C269.039 37.745 268.614 37.905 268.094 38.015C267.574 38.125 266.939 38.18 266.189 38.18C265.529 38.18 264.969 38.135 264.509 38.045C264.049 37.965 263.669 37.845 263.369 37.685C263.079 37.535 262.869 37.345 262.739 37.115C262.609 36.885 262.544 36.625 262.544 36.335C262.544 35.895 262.664 35.55 262.904 35.3C263.154 35.06 263.499 34.905 263.939 34.835V34.67C263.619 34.59 263.369 34.435 263.189 34.205C263.019 33.965 262.934 33.685 262.934 33.365C262.934 33.165 262.974 32.99 263.054 32.84C263.134 32.68 263.239 32.545 263.369 32.435C263.509 32.325 263.664 32.235 263.834 32.165C264.004 32.085 264.184 32.025 264.374 31.985V31.925C263.894 31.705 263.534 31.4 263.294 31.01C263.064 30.62 262.949 30.165 262.949 29.645C262.949 28.845 263.224 28.205 263.774 27.725C264.324 27.235 265.129 26.99 266.189 26.99C266.429 26.99 266.664 27.005 266.894 27.035C267.134 27.065 267.354 27.115 267.554 27.185V26.93C267.554 26.17 267.924 25.79 268.664 25.79H269.879V27.26H268.214V27.47C268.624 27.7 268.929 28 269.129 28.37C269.329 28.74 269.429 29.165 269.429 29.645C269.429 30.435 269.154 31.07 268.604 31.55C268.064 32.03 267.259 32.27 266.189 32.27C265.729 32.27 265.329 32.225 264.989 32.135C264.839 32.205 264.709 32.3 264.599 32.42C264.489 32.53 264.434 32.67 264.434 32.84C264.434 33.23 264.774 33.425 265.454 33.425H267.554C268.514 33.425 269.209 33.625 269.639 34.025C270.079 34.415 270.299 34.96 270.299 35.66ZM268.499 35.885C268.499 35.635 268.399 35.44 268.199 35.3C267.999 35.16 267.654 35.09 267.164 35.09H264.494C264.224 35.29 264.089 35.56 264.089 35.9C264.089 36.2 264.214 36.435 264.464 36.605C264.714 36.775 265.139 36.86 265.739 36.86H266.699C267.329 36.86 267.784 36.78 268.064 36.62C268.354 36.46 268.499 36.215 268.499 35.885ZM266.189 30.965C267.129 30.965 267.599 30.565 267.599 29.765V29.51C267.599 28.71 267.129 28.31 266.189 28.31C265.249 28.31 264.779 28.71 264.779 29.51V29.765C264.779 30.565 265.249 30.965 266.189 30.965ZM274.425 35.18C273.865 35.18 273.36 35.085 272.91 34.895C272.47 34.705 272.09 34.43 271.77 34.07C271.46 33.71 271.22 33.28 271.05 32.78C270.88 32.27 270.795 31.7 270.795 31.07C270.795 30.44 270.88 29.875 271.05 29.375C271.22 28.875 271.46 28.45 271.77 28.1C272.09 27.74 272.47 27.465 272.91 27.275C273.36 27.085 273.865 26.99 274.425 26.99C274.985 26.99 275.49 27.085 275.94 27.275C276.39 27.465 276.77 27.74 277.08 28.1C277.4 28.45 277.645 28.875 277.815 29.375C277.985 29.875 278.07 30.44 278.07 31.07C278.07 31.7 277.985 32.27 277.815 32.78C277.645 33.28 277.4 33.71 277.08 34.07C276.77 34.43 276.39 34.705 275.94 34.895C275.49 35.085 274.985 35.18 274.425 35.18ZM274.425 33.635C274.935 33.635 275.335 33.48 275.625 33.17C275.915 32.86 276.06 32.405 276.06 31.805V30.35C276.06 29.76 275.915 29.31 275.625 29C275.335 28.69 274.935 28.535 274.425 28.535C273.925 28.535 273.53 28.69 273.24 29C272.95 29.31 272.805 29.76 272.805 30.35V31.805C272.805 32.405 272.95 32.86 273.24 33.17C273.53 33.48 273.925 33.635 274.425 33.635ZM279.772 35V27.17H281.692V28.79H281.767C281.817 28.58 281.892 28.38 281.992 28.19C282.102 27.99 282.242 27.815 282.412 27.665C282.582 27.515 282.782 27.395 283.012 27.305C283.252 27.215 283.527 27.17 283.837 27.17H284.257V28.985H283.657C283.007 28.985 282.517 29.08 282.187 29.27C281.857 29.46 281.692 29.77 281.692 30.2V35H279.772ZM286.621 26.03C286.221 26.03 285.931 25.94 285.751 25.76C285.581 25.58 285.496 25.35 285.496 25.07V24.77C285.496 24.49 285.581 24.26 285.751 24.08C285.931 23.9 286.221 23.81 286.621 23.81C287.011 23.81 287.296 23.9 287.476 24.08C287.656 24.26 287.746 24.49 287.746 24.77V25.07C287.746 25.35 287.656 25.58 287.476 25.76C287.296 25.94 287.011 26.03 286.621 26.03ZM285.661 27.17H287.581V35H285.661V27.17ZM292.251 35C291.591 35 291.086 34.83 290.736 34.49C290.396 34.14 290.226 33.645 290.226 33.005V28.7H289.071V27.17H289.671C289.961 27.17 290.156 27.105 290.256 26.975C290.366 26.835 290.421 26.63 290.421 26.36V25.025H292.146V27.17H293.751V28.7H292.146V33.47H293.631V35H292.251ZM295.417 23.9H297.337V28.475H297.412C297.572 28.055 297.822 27.705 298.162 27.425C298.512 27.135 298.992 26.99 299.602 26.99C300.412 26.99 301.032 27.255 301.462 27.785C301.892 28.315 302.107 29.07 302.107 30.05V35H300.187V30.245C300.187 29.685 300.087 29.265 299.887 28.985C299.687 28.705 299.357 28.565 298.897 28.565C298.697 28.565 298.502 28.595 298.312 28.655C298.132 28.705 297.967 28.785 297.817 28.895C297.677 28.995 297.562 29.125 297.472 29.285C297.382 29.435 297.337 29.615 297.337 29.825V35H295.417V23.9ZM304.235 35V27.17H306.155V28.475H306.23C306.38 28.065 306.62 27.715 306.95 27.425C307.28 27.135 307.74 26.99 308.33 26.99C308.87 26.99 309.335 27.12 309.725 27.38C310.115 27.64 310.405 28.035 310.595 28.565H310.625C310.765 28.125 311.04 27.755 311.45 27.455C311.87 27.145 312.395 26.99 313.025 26.99C313.795 26.99 314.385 27.255 314.795 27.785C315.215 28.315 315.425 29.07 315.425 30.05V35H313.505V30.245C313.505 29.125 313.085 28.565 312.245 28.565C312.055 28.565 311.87 28.595 311.69 28.655C311.52 28.705 311.365 28.785 311.225 28.895C311.095 28.995 310.99 29.125 310.91 29.285C310.83 29.435 310.79 29.615 310.79 29.825V35H308.87V30.245C308.87 29.125 308.45 28.565 307.61 28.565C307.43 28.565 307.25 28.595 307.07 28.655C306.9 28.705 306.745 28.785 306.605 28.895C306.475 28.995 306.365 29.125 306.275 29.285C306.195 29.435 306.155 29.615 306.155 29.825V35H304.235Z" fill="#008A34"/>
</svg>
